<svg width="314" height="186" viewBox="0 0 314 186" fill="none" xmlns="http://www.w3.org/2000/svg">
<rect x="7" width="300" height="186" rx="8" fill="#2C2E33"/>
<path d="M7 8C7 3.58172 10.5817 0 15 0H299C303.418 0 307 3.58172 307 8V40H7V8Z" fill="#1864AB"/>
<path d="M21.9844 27.1875C20.3958 27.1875 19.1224 26.6641 18.1641 25.6172C17.2109 24.5703 16.7344 23.2083 16.7344 21.5312C16.7344 19.7292 17.2214 18.2917 18.1953 17.2188C19.1693 16.1458 20.4948 15.6094 22.1719 15.6094C23.7188 15.6094 24.9635 16.1302 25.9062 17.1719C26.8542 18.2135 27.3281 19.5755 27.3281 21.2578C27.3281 23.0859 26.8438 24.5312 25.875 25.5938C24.9062 26.6562 23.6094 27.1875 21.9844 27.1875ZM22.0781 16.7969C20.901 16.7969 19.9453 17.2214 19.2109 18.0703C18.4766 18.9193 18.1094 20.0339 18.1094 21.4141C18.1094 22.7943 18.4661 23.9062 19.1797 24.75C19.8984 25.5885 20.8333 26.0078 21.9844 26.0078C23.2135 26.0078 24.1823 25.6068 24.8906 24.8047C25.599 24.0026 25.9531 22.8802 25.9531 21.4375C25.9531 19.9583 25.6094 18.8151 24.9219 18.0078C24.2344 17.2005 23.2865 16.7969 22.0781 16.7969ZM30.6719 25.8438H30.6406V30.6797H29.3594V19H30.6406V20.4062H30.6719C31.3021 19.3438 32.224 18.8125 33.4375 18.8125C34.4688 18.8125 35.2734 19.1719 35.8516 19.8906C36.4297 20.6042 36.7188 21.5625 36.7188 22.7656C36.7188 24.1042 36.3932 25.1771 35.7422 25.9844C35.0911 26.7865 34.2005 27.1875 33.0703 27.1875C32.0339 27.1875 31.2344 26.7396 30.6719 25.8438ZM30.6406 22.6172V23.7344C30.6406 24.3958 30.8542 24.9583 31.2812 25.4219C31.7135 25.8802 32.2604 26.1094 32.9219 26.1094C33.6979 26.1094 34.3047 25.8125 34.7422 25.2188C35.1849 24.625 35.4062 23.7995 35.4062 22.7422C35.4062 21.8516 35.2005 21.1536 34.7891 20.6484C34.3776 20.1432 33.8203 19.8906 33.1172 19.8906C32.3724 19.8906 31.7734 20.151 31.3203 20.6719C30.8672 21.1875 30.6406 21.8359 30.6406 22.6172ZM45.1953 23.3203H39.5469C39.5677 24.2109 39.8073 24.8984 40.2656 25.3828C40.724 25.8672 41.3542 26.1094 42.1562 26.1094C43.0573 26.1094 43.8854 25.8125 44.6406 25.2188V26.4219C43.9375 26.9323 43.0078 27.1875 41.8516 27.1875C40.7214 27.1875 39.8333 26.8255 39.1875 26.1016C38.5417 25.3724 38.2188 24.349 38.2188 23.0312C38.2188 21.7865 38.5703 20.7734 39.2734 19.9922C39.9818 19.2057 40.8594 18.8125 41.9062 18.8125C42.9531 18.8125 43.763 19.151 44.3359 19.8281C44.9089 20.5052 45.1953 21.4453 45.1953 22.6484V23.3203ZM43.8828 22.2344C43.8776 21.4948 43.6979 20.9193 43.3438 20.5078C42.9948 20.0964 42.5078 19.8906 41.8828 19.8906C41.2786 19.8906 40.7656 20.1068 40.3438 20.5391C39.9219 20.9714 39.6615 21.5365 39.5625 22.2344H43.8828ZM51.3125 20.2969C51.0885 20.125 50.7656 20.0391 50.3438 20.0391C49.7969 20.0391 49.3385 20.2969 48.9688 20.8125C48.6042 21.3281 48.4219 22.0312 48.4219 22.9219V27H47.1406V19H48.4219V20.6484H48.4531C48.6354 20.0859 48.9141 19.6484 49.2891 19.3359C49.6641 19.0182 50.0833 18.8594 50.5469 18.8594C50.8802 18.8594 51.1354 18.8958 51.3125 18.9688V20.2969ZM58.4297 27H57.1484V25.75H57.1172C56.5599 26.7083 55.7396 27.1875 54.6562 27.1875C53.8594 27.1875 53.2344 26.9766 52.7812 26.5547C52.3333 26.1328 52.1094 25.5729 52.1094 24.875C52.1094 23.3802 52.9896 22.5104 54.75 22.2656L57.1484 21.9297C57.1484 20.5703 56.599 19.8906 55.5 19.8906C54.5365 19.8906 53.6667 20.2188 52.8906 20.875V19.5625C53.6771 19.0625 54.5833 18.8125 55.6094 18.8125C57.4896 18.8125 58.4297 19.8073 58.4297 21.7969V27ZM57.1484 22.9531L55.2188 23.2188C54.625 23.3021 54.1771 23.4505 53.875 23.6641C53.5729 23.8724 53.4219 24.2448 53.4219 24.7812C53.4219 25.1719 53.5599 25.4922 53.8359 25.7422C54.1172 25.987 54.4896 26.1094 54.9531 26.1094C55.5885 26.1094 56.112 25.888 56.5234 25.4453C56.9401 24.9974 57.1484 24.4323 57.1484 23.75V22.9531ZM64.5547 26.9219C64.2526 27.0885 63.8542 27.1719 63.3594 27.1719C61.9583 27.1719 61.2578 26.3906 61.2578 24.8281V20.0938H59.8828V19H61.2578V17.0469L62.5391 16.6328V19H64.5547V20.0938H62.5391V24.6016C62.5391 25.138 62.6302 25.5208 62.8125 25.75C62.9948 25.9792 63.2969 26.0938 63.7188 26.0938C64.0417 26.0938 64.3203 26.0052 64.5547 25.8281V26.9219ZM69.6094 27.1875C68.4271 27.1875 67.4818 26.8151 66.7734 26.0703C66.0703 25.3203 65.7188 24.3281 65.7188 23.0938C65.7188 21.75 66.0859 20.7005 66.8203 19.9453C67.5547 19.1901 68.5469 18.8125 69.7969 18.8125C70.9896 18.8125 71.9193 19.1797 72.5859 19.9141C73.2578 20.6484 73.5938 21.6667 73.5938 22.9688C73.5938 24.2448 73.2318 25.2682 72.5078 26.0391C71.7891 26.8047 70.8229 27.1875 69.6094 27.1875ZM69.7031 19.8906C68.8802 19.8906 68.2292 20.1719 67.75 20.7344C67.2708 21.2917 67.0312 22.0625 67.0312 23.0469C67.0312 23.9948 67.2734 24.7422 67.7578 25.2891C68.2422 25.8359 68.8906 26.1094 69.7031 26.1094C70.5312 26.1094 71.1667 25.8411 71.6094 25.3047C72.0573 24.7682 72.2812 24.0052 72.2812 23.0156C72.2812 22.0156 72.0573 21.2448 71.6094 20.7031C71.1667 20.1615 70.5312 19.8906 69.7031 19.8906ZM79.8125 20.2969C79.5885 20.125 79.2656 20.0391 78.8438 20.0391C78.2969 20.0391 77.8385 20.2969 77.4688 20.8125C77.1042 21.3281 76.9219 22.0312 76.9219 22.9219V27H75.6406V19H76.9219V20.6484H76.9531C77.1354 20.0859 77.4141 19.6484 77.7891 19.3359C78.1641 19.0182 78.5833 18.8594 79.0469 18.8594C79.3802 18.8594 79.6354 18.8958 79.8125 18.9688V20.2969ZM90.3281 18.7344C90.3281 18.3906 90.2734 18.0911 90.1641 17.8359C90.0599 17.5807 89.9141 17.3698 89.7266 17.2031C89.5443 17.0312 89.3281 16.9036 89.0781 16.8203C88.8281 16.737 88.5573 16.6953 88.2656 16.6953C88.0156 16.6953 87.7708 16.7292 87.5312 16.7969C87.2917 16.8646 87.0573 16.9583 86.8281 17.0781C86.6042 17.1979 86.3854 17.3411 86.1719 17.5078C85.9635 17.6745 85.7682 17.8594 85.5859 18.0625V16.6875C85.9453 16.3385 86.3464 16.0729 86.7891 15.8906C87.237 15.7031 87.7812 15.6094 88.4219 15.6094C88.8802 15.6094 89.3047 15.6771 89.6953 15.8125C90.0859 15.9427 90.4245 16.1354 90.7109 16.3906C90.9974 16.6458 91.2214 16.9609 91.3828 17.3359C91.5495 17.7109 91.6328 18.1406 91.6328 18.625C91.6328 19.0677 91.5807 19.4688 91.4766 19.8281C91.3776 20.1875 91.224 20.526 91.0156 20.8438C90.8125 21.1615 90.5547 21.4661 90.2422 21.7578C89.9297 22.0495 89.5625 22.3464 89.1406 22.6484C88.6146 23.0234 88.1797 23.3438 87.8359 23.6094C87.4974 23.875 87.2266 24.125 87.0234 24.3594C86.8255 24.5885 86.6849 24.8203 86.6016 25.0547C86.5234 25.2839 86.4844 25.5495 86.4844 25.8516H92.0625V27H85.1484V26.4453C85.1484 25.9661 85.2005 25.5443 85.3047 25.1797C85.4089 24.8151 85.5807 24.4688 85.8203 24.1406C86.0599 23.8125 86.3724 23.4844 86.7578 23.1562C87.1484 22.8281 87.625 22.4583 88.1875 22.0469C88.5938 21.7552 88.9323 21.4766 89.2031 21.2109C89.4792 20.9453 89.7005 20.6797 89.8672 20.4141C90.0339 20.1484 90.151 19.8802 90.2188 19.6094C90.2917 19.3333 90.3281 19.0417 90.3281 18.7344ZM94.3906 27V15.7969H97.4844C101.432 15.7969 103.406 17.6172 103.406 21.2578C103.406 22.987 102.857 24.3776 101.758 25.4297C100.664 26.4766 99.1979 27 97.3594 27H94.3906ZM95.7031 16.9844V25.8125H97.375C98.8438 25.8125 99.987 25.4193 100.805 24.6328C101.622 23.8464 102.031 22.7318 102.031 21.2891C102.031 18.4193 100.505 16.9844 97.4531 16.9844H95.7031Z" fill="#CED4DA"/>
<path d="M29.1846 55.4971L25.2954 66H23.9404L20.1318 55.4971H21.5015L24.4092 63.8247C24.502 64.0933 24.5728 64.4033 24.6216 64.7549H24.6509C24.6899 64.4619 24.7705 64.147 24.8926 63.8101L27.8589 55.4971H29.1846ZM34.8022 66H33.6011V64.8281H33.5718C33.0493 65.7266 32.2803 66.1758 31.2646 66.1758C30.5176 66.1758 29.9316 65.978 29.5068 65.5825C29.0869 65.187 28.877 64.6621 28.877 64.0078C28.877 62.6064 29.7021 61.791 31.3525 61.5615L33.6011 61.2466C33.6011 59.9722 33.0859 59.335 32.0557 59.335C31.1523 59.335 30.3369 59.6426 29.6094 60.2578V59.0273C30.3467 58.5586 31.1963 58.3242 32.1582 58.3242C33.9209 58.3242 34.8022 59.2568 34.8022 61.1221V66ZM33.6011 62.2061L31.792 62.4551C31.2354 62.5332 30.8154 62.6724 30.5322 62.8726C30.249 63.0679 30.1074 63.417 30.1074 63.9199C30.1074 64.2861 30.2368 64.5864 30.4956 64.8208C30.7593 65.0503 31.1084 65.165 31.543 65.165C32.1387 65.165 32.6294 64.9575 33.0151 64.5425C33.4058 64.1226 33.6011 63.5928 33.6011 62.9531V62.2061ZM38.2666 66H37.0654V54.8965H38.2666V66ZM46.7627 66H45.5615V64.8135H45.5322C45.0342 65.7217 44.2627 66.1758 43.2178 66.1758C41.4307 66.1758 40.5371 65.1113 40.5371 62.9824V58.5H41.731V62.792C41.731 64.374 42.3364 65.165 43.5474 65.165C44.1333 65.165 44.6143 64.9502 44.9902 64.5205C45.3711 64.0859 45.5615 63.5195 45.5615 62.8213V58.5H46.7627V66ZM55.2222 62.5503H49.9268C49.9463 63.3853 50.1709 64.0298 50.6006 64.4839C51.0303 64.938 51.6211 65.165 52.373 65.165C53.2178 65.165 53.9941 64.8867 54.7021 64.3301V65.458C54.043 65.9365 53.1714 66.1758 52.0874 66.1758C51.0278 66.1758 50.1953 65.8364 49.5898 65.1577C48.9844 64.4741 48.6816 63.5146 48.6816 62.2793C48.6816 61.1123 49.0112 60.1626 49.6704 59.4302C50.3345 58.6929 51.1572 58.3242 52.1387 58.3242C53.1201 58.3242 53.8794 58.6416 54.4165 59.2764C54.9536 59.9111 55.2222 60.7925 55.2222 61.9204V62.5503ZM53.9917 61.5322C53.9868 60.8389 53.8184 60.2993 53.4863 59.9136C53.1592 59.5278 52.7026 59.335 52.1167 59.335C51.5503 59.335 51.0693 59.5376 50.6738 59.9429C50.2783 60.3481 50.0342 60.8779 49.9414 61.5322H53.9917ZM65.249 66H64.0479V56.9253C63.9551 57.0181 63.8184 57.1255 63.6377 57.2476C63.4619 57.3647 63.2617 57.4819 63.0371 57.5991C62.8174 57.7163 62.583 57.8262 62.334 57.9287C62.0898 58.0312 61.8506 58.1118 61.6162 58.1704V56.9546C61.8799 56.8813 62.1582 56.7837 62.4512 56.6616C62.749 56.5347 63.0396 56.3955 63.3228 56.2441C63.6108 56.0879 63.8818 55.9268 64.1357 55.7607C64.3896 55.5898 64.6094 55.4238 64.7949 55.2627H65.249V66Z" fill="#CED4DA"/>
<circle cx="7" cy="61" r="7" fill="#1864AB"/>
<path d="M29.1846 90.4971L25.2954 101H23.9404L20.1318 90.4971H21.5015L24.4092 98.8247C24.502 99.0933 24.5728 99.4033 24.6216 99.7549H24.6509C24.6899 99.4619 24.7705 99.147 24.8926 98.8101L27.8589 90.4971H29.1846ZM34.8022 101H33.6011V99.8281H33.5718C33.0493 100.727 32.2803 101.176 31.2646 101.176C30.5176 101.176 29.9316 100.978 29.5068 100.583C29.0869 100.187 28.877 99.6621 28.877 99.0078C28.877 97.6064 29.7021 96.791 31.3525 96.5615L33.6011 96.2466C33.6011 94.9722 33.0859 94.335 32.0557 94.335C31.1523 94.335 30.3369 94.6426 29.6094 95.2578V94.0273C30.3467 93.5586 31.1963 93.3242 32.1582 93.3242C33.9209 93.3242 34.8022 94.2568 34.8022 96.1221V101ZM33.6011 97.2061L31.792 97.4551C31.2354 97.5332 30.8154 97.6724 30.5322 97.8726C30.249 98.0679 30.1074 98.417 30.1074 98.9199C30.1074 99.2861 30.2368 99.5864 30.4956 99.8208C30.7593 100.05 31.1084 100.165 31.543 100.165C32.1387 100.165 32.6294 99.9575 33.0151 99.5425C33.4058 99.1226 33.6011 98.5928 33.6011 97.9531V97.2061ZM38.2666 101H37.0654V89.8965H38.2666V101ZM46.7627 101H45.5615V99.8135H45.5322C45.0342 100.722 44.2627 101.176 43.2178 101.176C41.4307 101.176 40.5371 100.111 40.5371 97.9824V93.5H41.731V97.792C41.731 99.374 42.3364 100.165 43.5474 100.165C44.1333 100.165 44.6143 99.9502 44.9902 99.5205C45.3711 99.0859 45.5615 98.5195 45.5615 97.8213V93.5H46.7627V101ZM55.2222 97.5503H49.9268C49.9463 98.3853 50.1709 99.0298 50.6006 99.4839C51.0303 99.938 51.6211 100.165 52.373 100.165C53.2178 100.165 53.9941 99.8867 54.7021 99.3301V100.458C54.043 100.937 53.1714 101.176 52.0874 101.176C51.0278 101.176 50.1953 100.836 49.5898 100.158C48.9844 99.4741 48.6816 98.5146 48.6816 97.2793C48.6816 96.1123 49.0112 95.1626 49.6704 94.4302C50.3345 93.6929 51.1572 93.3242 52.1387 93.3242C53.1201 93.3242 53.8794 93.6416 54.4165 94.2764C54.9536 94.9111 55.2222 95.7925 55.2222 96.9204V97.5503ZM53.9917 96.5322C53.9868 95.8389 53.8184 95.2993 53.4863 94.9136C53.1592 94.5278 52.7026 94.335 52.1167 94.335C51.5503 94.335 51.0693 94.5376 50.6738 94.9429C50.2783 95.3481 50.0342 95.8779 49.9414 96.5322H53.9917ZM65.6006 93.251C65.6006 92.9287 65.5493 92.6479 65.4468 92.4087C65.3491 92.1694 65.2124 91.9717 65.0366 91.8154C64.8657 91.6543 64.6631 91.5347 64.4287 91.4565C64.1943 91.3784 63.9404 91.3394 63.667 91.3394C63.4326 91.3394 63.2031 91.3711 62.9785 91.4346C62.7539 91.498 62.5342 91.5859 62.3193 91.6982C62.1094 91.8105 61.9043 91.9448 61.7041 92.1011C61.5088 92.2573 61.3257 92.4307 61.1548 92.6211V91.332C61.4917 91.0049 61.8677 90.7559 62.2827 90.585C62.7026 90.4092 63.2129 90.3213 63.8135 90.3213C64.2432 90.3213 64.6411 90.3848 65.0073 90.5117C65.3735 90.6338 65.6909 90.8145 65.9595 91.0537C66.228 91.293 66.438 91.5884 66.5894 91.9399C66.7456 92.2915 66.8237 92.6943 66.8237 93.1484C66.8237 93.5635 66.7749 93.9395 66.6772 94.2764C66.5845 94.6133 66.4404 94.9307 66.2451 95.2285C66.0547 95.5264 65.813 95.812 65.52 96.0854C65.2271 96.3589 64.8828 96.6372 64.4873 96.9204C63.9941 97.272 63.5864 97.5723 63.2642 97.8213C62.9468 98.0703 62.6929 98.3047 62.5024 98.5244C62.3169 98.7393 62.1851 98.9565 62.1069 99.1763C62.0337 99.3911 61.9971 99.6401 61.9971 99.9233H67.2266V101H60.7446V100.48C60.7446 100.031 60.7935 99.6353 60.8911 99.2935C60.9888 98.9517 61.1499 98.627 61.3745 98.3193C61.5991 98.0117 61.8921 97.7041 62.2534 97.3965C62.6196 97.0889 63.0664 96.7422 63.5938 96.3564C63.9746 96.083 64.292 95.8218 64.5459 95.5728C64.8047 95.3237 65.0122 95.0747 65.1685 94.8257C65.3247 94.5767 65.4346 94.3252 65.498 94.0713C65.5664 93.8125 65.6006 93.5391 65.6006 93.251Z" fill="#CED4DA"/>
<circle cx="7" cy="96" r="7" fill="#1864AB"/>
<path d="M262.931 66H261.466L259.708 63.0557C259.547 62.7822 259.391 62.5503 259.239 62.3599C259.088 62.1646 258.932 62.0059 258.771 61.8838C258.614 61.7617 258.443 61.6738 258.258 61.6201C258.077 61.5615 257.872 61.5322 257.643 61.5322H256.632V66H255.401V55.4971H258.536C258.995 55.4971 259.417 55.5557 259.803 55.6729C260.194 55.7852 260.531 55.9585 260.814 56.1929C261.102 56.4272 261.327 56.7202 261.488 57.0718C261.649 57.4185 261.729 57.8262 261.729 58.2949C261.729 58.6611 261.673 58.998 261.561 59.3057C261.454 59.6084 261.297 59.8794 261.092 60.1187C260.892 60.3579 260.648 60.563 260.36 60.7339C260.077 60.8999 259.757 61.0293 259.4 61.1221V61.1514C259.576 61.2295 259.728 61.3198 259.854 61.4224C259.986 61.52 260.111 61.6372 260.228 61.7739C260.345 61.9106 260.46 62.0669 260.572 62.2427C260.689 62.4136 260.819 62.6138 260.96 62.8433L262.931 66ZM256.632 56.6104V60.4189H258.302C258.609 60.4189 258.893 60.3726 259.151 60.2798C259.415 60.187 259.642 60.0552 259.833 59.8843C260.023 59.7085 260.172 59.4961 260.279 59.2471C260.387 58.9932 260.44 58.71 260.44 58.3975C260.44 57.8359 260.257 57.3989 259.891 57.0864C259.53 56.769 259.005 56.6104 258.316 56.6104H256.632ZM269.808 62.5503H264.513C264.532 63.3853 264.757 64.0298 265.187 64.4839C265.616 64.938 266.207 65.165 266.959 65.165C267.804 65.165 268.58 64.8867 269.288 64.3301V65.458C268.629 65.9365 267.757 66.1758 266.673 66.1758C265.614 66.1758 264.781 65.8364 264.176 65.1577C263.57 64.4741 263.268 63.5146 263.268 62.2793C263.268 61.1123 263.597 60.1626 264.256 59.4302C264.92 58.6929 265.743 58.3242 266.725 58.3242C267.706 58.3242 268.465 58.6416 269.002 59.2764C269.54 59.9111 269.808 60.7925 269.808 61.9204V62.5503ZM268.578 61.5322C268.573 60.8389 268.404 60.2993 268.072 59.9136C267.745 59.5278 267.289 59.335 266.703 59.335C266.136 59.335 265.655 59.5376 265.26 59.9429C264.864 60.3481 264.62 60.8779 264.527 61.5322H268.578ZM271.178 65.729V64.4399C271.832 64.9233 272.552 65.165 273.338 65.165C274.393 65.165 274.92 64.8135 274.92 64.1104C274.92 63.9102 274.874 63.7417 274.781 63.605C274.693 63.4634 274.571 63.3389 274.415 63.2314C274.264 63.124 274.083 63.0288 273.873 62.9458C273.668 62.8579 273.446 62.7676 273.207 62.6748C272.875 62.543 272.582 62.4111 272.328 62.2793C272.079 62.1426 271.869 61.9912 271.698 61.8252C271.532 61.6543 271.405 61.4614 271.317 61.2466C271.234 61.0317 271.192 60.7803 271.192 60.4922C271.192 60.1406 271.273 59.8306 271.434 59.562C271.595 59.2886 271.81 59.0615 272.079 58.8809C272.347 58.6953 272.652 58.5562 272.994 58.4634C273.341 58.3706 273.697 58.3242 274.063 58.3242C274.713 58.3242 275.294 58.4365 275.807 58.6611V59.877C275.255 59.5156 274.62 59.335 273.902 59.335C273.678 59.335 273.475 59.3618 273.294 59.4155C273.114 59.4644 272.958 59.5352 272.826 59.6279C272.699 59.7207 272.599 59.833 272.525 59.9648C272.457 60.0918 272.423 60.2334 272.423 60.3896C272.423 60.585 272.457 60.7485 272.525 60.8804C272.599 61.0122 272.704 61.1294 272.84 61.2319C272.977 61.3345 273.143 61.4272 273.338 61.5103C273.534 61.5933 273.756 61.6836 274.005 61.7812C274.337 61.9082 274.635 62.04 274.898 62.1768C275.162 62.3086 275.387 62.46 275.572 62.6309C275.758 62.7969 275.899 62.9897 275.997 63.2095C276.1 63.4292 276.151 63.6904 276.151 63.9932C276.151 64.3643 276.068 64.6865 275.902 64.96C275.741 65.2334 275.523 65.4604 275.25 65.6411C274.977 65.8218 274.662 65.9561 274.305 66.0439C273.949 66.1318 273.575 66.1758 273.185 66.1758C272.413 66.1758 271.744 66.0269 271.178 65.729ZM284.068 66H282.867V64.8135H282.838C282.34 65.7217 281.568 66.1758 280.523 66.1758C278.736 66.1758 277.843 65.1113 277.843 62.9824V58.5H279.037V62.792C279.037 64.374 279.642 65.165 280.853 65.165C281.439 65.165 281.92 64.9502 282.296 64.5205C282.677 64.0859 282.867 63.5195 282.867 62.8213V58.5H284.068V66ZM287.701 66H286.5V54.8965H287.701V66ZM293.612 65.9268C293.329 66.083 292.955 66.1611 292.491 66.1611C291.178 66.1611 290.521 65.4287 290.521 63.9639V59.5254H289.232V58.5H290.521V56.6689L291.722 56.2808V58.5H293.612V59.5254H291.722V63.7515C291.722 64.2544 291.808 64.6133 291.979 64.8281C292.149 65.043 292.433 65.1504 292.828 65.1504C293.131 65.1504 293.392 65.0674 293.612 64.9014V65.9268Z" fill="#CED4DA"/>
<circle cx="307" cy="61" r="7" fill="#1864AB"/>
<path d="M25.6396 136.183C24.1357 136.183 22.9102 135.695 21.9629 134.718C21.0156 133.737 20.542 132.46 20.542 130.888C20.542 129.228 21.0229 127.885 21.9849 126.859C22.9468 125.834 24.2212 125.321 25.8081 125.321C27.3071 125.321 28.5181 125.812 29.4409 126.793C30.3687 127.775 30.8325 129.069 30.8325 130.675C30.8325 132.326 30.3516 133.656 29.3896 134.667C28.4326 135.678 27.1826 136.183 25.6396 136.183ZM25.7422 127.357C24.9121 127.357 24.2529 127.67 23.7646 128.295C23.2764 128.915 23.0322 129.738 23.0322 130.763C23.0322 131.803 23.2764 132.626 23.7646 133.231C24.2529 133.837 24.8926 134.14 25.6836 134.14C26.499 134.14 27.146 133.847 27.6245 133.261C28.103 132.67 28.3423 131.852 28.3423 130.807C28.3423 129.718 28.1104 128.871 27.6465 128.266C27.1826 127.66 26.5479 127.357 25.7422 127.357ZM34.6997 135.128H34.6704V139.45H32.356V128.5H34.6704V129.628H34.6997C35.271 128.754 36.0742 128.317 37.1094 128.317C38.0811 128.317 38.8306 128.651 39.3579 129.32C39.8901 129.984 40.1562 130.89 40.1562 132.038C40.1562 133.288 39.8462 134.291 39.2261 135.048C38.6108 135.805 37.7905 136.183 36.7651 136.183C35.8618 136.183 35.1733 135.832 34.6997 135.128ZM34.6338 132.052V132.653C34.6338 133.17 34.7705 133.593 35.0439 133.92C35.3174 134.247 35.6763 134.411 36.1206 134.411C36.6479 134.411 37.0557 134.208 37.3438 133.803C37.6367 133.393 37.7832 132.814 37.7832 132.067C37.7832 130.749 37.2705 130.089 36.2451 130.089C35.7715 130.089 35.3833 130.27 35.0806 130.631C34.7827 130.988 34.6338 131.461 34.6338 132.052ZM48.396 132.909H43.5034C43.5815 133.998 44.2676 134.542 45.5615 134.542C46.3867 134.542 47.1118 134.347 47.7368 133.957V135.626C47.0435 135.998 46.1426 136.183 45.0342 136.183C43.8232 136.183 42.8833 135.849 42.2144 135.18C41.5454 134.506 41.2109 133.568 41.2109 132.367C41.2109 131.122 41.5723 130.136 42.2949 129.408C43.0176 128.681 43.9062 128.317 44.9609 128.317C46.0547 128.317 46.8994 128.642 47.4951 129.291C48.0957 129.94 48.396 130.822 48.396 131.935V132.909ZM46.25 131.488C46.25 130.414 45.8154 129.877 44.9463 129.877C44.5752 129.877 44.2529 130.031 43.9795 130.338C43.7109 130.646 43.5474 131.029 43.4888 131.488H46.25ZM54.6655 130.587C54.3872 130.436 54.0625 130.36 53.6914 130.36C53.1885 130.36 52.7954 130.546 52.5122 130.917C52.229 131.283 52.0874 131.784 52.0874 132.418V136H49.7729V128.5H52.0874V129.892H52.1167C52.4829 128.876 53.1421 128.368 54.0942 128.368C54.3384 128.368 54.5288 128.397 54.6655 128.456V130.587ZM61.9897 136H59.7998V134.923H59.7705C59.2676 135.763 58.5229 136.183 57.5366 136.183C56.8091 136.183 56.2354 135.978 55.8154 135.568C55.4004 135.153 55.1929 134.601 55.1929 133.913C55.1929 132.458 56.0547 131.618 57.7783 131.393L59.8145 131.122C59.8145 130.302 59.3701 129.892 58.4814 129.892C57.5879 129.892 56.7383 130.158 55.9326 130.69V128.947C56.2549 128.781 56.6943 128.634 57.251 128.507C57.8125 128.38 58.3228 128.317 58.7817 128.317C60.9204 128.317 61.9897 129.384 61.9897 131.518V136ZM59.8145 132.953V132.448L58.4521 132.624C57.7002 132.721 57.3242 133.061 57.3242 133.642C57.3242 133.905 57.4146 134.123 57.5952 134.293C57.7808 134.459 58.0298 134.542 58.3423 134.542C58.7769 134.542 59.1309 134.394 59.4043 134.096C59.6777 133.793 59.8145 133.412 59.8145 132.953ZM68.3545 135.912C68.0127 136.093 67.4976 136.183 66.8091 136.183C65.1782 136.183 64.3628 135.336 64.3628 133.642V130.207H63.147V128.5H64.3628V126.881L66.6699 126.222V128.5H68.3545V130.207H66.6699V133.239C66.6699 134.02 66.98 134.411 67.6001 134.411C67.8442 134.411 68.0957 134.34 68.3545 134.198V135.912ZM73.1812 136.183C71.9312 136.183 70.9473 135.834 70.2295 135.136C69.5166 134.433 69.1602 133.48 69.1602 132.279C69.1602 131.039 69.5312 130.07 70.2734 129.372C71.0156 128.668 72.019 128.317 73.2837 128.317C74.5288 128.317 75.5054 128.668 76.2134 129.372C76.9214 130.07 77.2754 130.995 77.2754 132.147C77.2754 133.393 76.9092 134.376 76.1768 135.099C75.4492 135.822 74.4507 136.183 73.1812 136.183ZM73.2397 130.089C72.6929 130.089 72.2681 130.277 71.9653 130.653C71.6626 131.029 71.5112 131.562 71.5112 132.25C71.5112 133.69 72.0923 134.411 73.2544 134.411C74.3628 134.411 74.917 133.671 74.917 132.191C74.917 130.79 74.3579 130.089 73.2397 130.089ZM83.6694 130.587C83.3911 130.436 83.0664 130.36 82.6953 130.36C82.1924 130.36 81.7993 130.546 81.5161 130.917C81.2329 131.283 81.0913 131.784 81.0913 132.418V136H78.7769V128.5H81.0913V129.892H81.1206C81.4868 128.876 82.146 128.368 83.0981 128.368C83.3423 128.368 83.5327 128.397 83.6694 128.456V130.587Z" fill="#CED4DA"/>
<rect x="12" y="145" width="290" height="36" rx="8" fill="#1A1B1E"/>
<rect x="186" y="148" width="59" height="30" rx="5" fill="#373A40"/>
<path d="M47.4395 163.754H41.916V169.264H40.0977V163.754H34.5879V161.922H40.0977V156.412H41.916V161.922H47.4395V163.754Z" fill="#7B7D84"/>
<path d="M103.828 164.082H96.3633V162.318H103.828V164.082Z" fill="#7B7D84"/>
<path d="M162.826 162.906L159.08 163.672L161.678 166.994L160.174 168.033L158.041 164.41L155.881 168.033L154.377 166.994L156.975 163.672L153.201 162.906L153.816 161.197L157.398 162.551L157.084 158.395H158.971L158.656 162.551L162.252 161.197L162.826 162.906Z" fill="#7B7D84"/>
<path d="M220.326 154.996L213.559 171.324H211.498L218.236 154.996H220.326Z" fill="#CED4DA"/>
<path d="M269.654 163.027C268.665 163.027 267.877 162.712 267.291 162.08C266.705 161.442 266.412 160.592 266.412 159.531C266.412 158.372 266.721 157.461 267.34 156.797C267.965 156.126 268.805 155.791 269.859 155.791C270.882 155.791 271.673 156.1 272.232 156.719C272.799 157.337 273.082 158.206 273.082 159.326C273.082 160.446 272.766 161.344 272.135 162.021C271.503 162.692 270.676 163.027 269.654 163.027ZM269.791 157.158C269.257 157.158 268.834 157.363 268.521 157.773C268.215 158.184 268.062 158.747 268.062 159.463C268.062 160.166 268.212 160.713 268.512 161.104C268.818 161.494 269.234 161.689 269.762 161.689C270.289 161.689 270.702 161.488 271.002 161.084C271.301 160.674 271.451 160.107 271.451 159.385C271.451 158.682 271.301 158.135 271.002 157.744C270.709 157.354 270.305 157.158 269.791 157.158ZM279.137 155.996L270.152 170.098H268.756L277.73 155.996H279.137ZM277.877 170.215C276.887 170.215 276.1 169.899 275.514 169.268C274.928 168.63 274.635 167.78 274.635 166.719C274.635 165.56 274.944 164.648 275.562 163.984C276.188 163.314 277.027 162.979 278.082 162.979C279.104 162.979 279.895 163.288 280.455 163.906C281.021 164.525 281.305 165.394 281.305 166.514C281.305 167.633 280.989 168.532 280.357 169.209C279.726 169.88 278.899 170.215 277.877 170.215ZM278.014 164.346C277.48 164.346 277.057 164.551 276.744 164.961C276.438 165.371 276.285 165.934 276.285 166.65C276.285 167.354 276.435 167.9 276.734 168.291C277.04 168.682 277.457 168.877 277.984 168.877C278.512 168.877 278.925 168.675 279.225 168.271C279.524 167.861 279.674 167.295 279.674 166.572C279.674 165.869 279.524 165.322 279.225 164.932C278.932 164.541 278.528 164.346 278.014 164.346Z" fill="#7B7D84"/>
<rect x="70" y="152" width="1" height="22" fill="#373A40"/>
<rect x="128" y="152" width="1" height="22" fill="#373A40"/>
<rect x="186" y="152" width="1" height="22" fill="#373A40"/>
<rect x="244" y="152" width="1" height="22" fill="#373A40"/>
</svg>
