<svg width="900" height="274" viewBox="0 0 900 274" fill="none" xmlns="http://www.w3.org/2000/svg">
<path d="M200 255C250 255 250 184 300 184M600 149C650 149 650 149 700 149M200 149H300" stroke="#CED4DA" stroke-width="2"/>
<rect x="700" y="88" width="200" height="80" rx="8" fill="#2C2E33"/>
<path d="M718.984 155.188C717.396 155.188 716.122 154.664 715.164 153.617C714.211 152.57 713.734 151.208 713.734 149.531C713.734 147.729 714.221 146.292 715.195 145.219C716.169 144.146 717.495 143.609 719.172 143.609C720.719 143.609 721.964 144.13 722.906 145.172C723.854 146.214 724.328 147.576 724.328 149.258C724.328 151.086 723.844 152.531 722.875 153.594C721.906 154.656 720.609 155.188 718.984 155.188ZM719.078 144.797C717.901 144.797 716.945 145.221 716.211 146.07C715.477 146.919 715.109 148.034 715.109 149.414C715.109 150.794 715.466 151.906 716.18 152.75C716.898 153.589 717.833 154.008 718.984 154.008C720.214 154.008 721.182 153.607 721.891 152.805C722.599 152.003 722.953 150.88 722.953 149.438C722.953 147.958 722.609 146.815 721.922 146.008C721.234 145.201 720.286 144.797 719.078 144.797ZM732.828 155H731.547V153.734H731.516C730.984 154.703 730.161 155.188 729.047 155.188C727.141 155.188 726.188 154.052 726.188 151.781V147H727.461V151.578C727.461 153.266 728.107 154.109 729.398 154.109C730.023 154.109 730.536 153.88 730.938 153.422C731.344 152.958 731.547 152.354 731.547 151.609V147H732.828V155ZM739.133 154.922C738.831 155.089 738.432 155.172 737.938 155.172C736.536 155.172 735.836 154.391 735.836 152.828V148.094H734.461V147H735.836V145.047L737.117 144.633V147H739.133V148.094H737.117V152.602C737.117 153.138 737.208 153.521 737.391 153.75C737.573 153.979 737.875 154.094 738.297 154.094C738.62 154.094 738.898 154.005 739.133 153.828V154.922ZM742.156 153.844H742.125V158.68H740.844V147H742.125V148.406H742.156C742.786 147.344 743.708 146.812 744.922 146.812C745.953 146.812 746.758 147.172 747.336 147.891C747.914 148.604 748.203 149.562 748.203 150.766C748.203 152.104 747.878 153.177 747.227 153.984C746.576 154.786 745.685 155.188 744.555 155.188C743.518 155.188 742.719 154.74 742.156 153.844ZM742.125 150.617V151.734C742.125 152.396 742.339 152.958 742.766 153.422C743.198 153.88 743.745 154.109 744.406 154.109C745.182 154.109 745.789 153.812 746.227 153.219C746.669 152.625 746.891 151.799 746.891 150.742C746.891 149.852 746.685 149.154 746.273 148.648C745.862 148.143 745.305 147.891 744.602 147.891C743.857 147.891 743.258 148.151 742.805 148.672C742.352 149.188 742.125 149.836 742.125 150.617ZM756.719 155H755.438V153.734H755.406C754.875 154.703 754.052 155.188 752.938 155.188C751.031 155.188 750.078 154.052 750.078 151.781V147H751.352V151.578C751.352 153.266 751.997 154.109 753.289 154.109C753.914 154.109 754.427 153.88 754.828 153.422C755.234 152.958 755.438 152.354 755.438 151.609V147H756.719V155ZM763.023 154.922C762.721 155.089 762.323 155.172 761.828 155.172C760.427 155.172 759.727 154.391 759.727 152.828V148.094H758.352V147H759.727V145.047L761.008 144.633V147H763.023V148.094H761.008V152.602C761.008 153.138 761.099 153.521 761.281 153.75C761.464 153.979 761.766 154.094 762.188 154.094C762.51 154.094 762.789 154.005 763.023 153.828V154.922Z" fill="#CED4DA"/>
<path d="M700 96C700 91.5817 703.582 88 708 88H892C896.418 88 900 91.5817 900 96V128H700V96Z" fill="#1864AB"/>
<path d="M714.984 115.188C713.396 115.188 712.122 114.664 711.164 113.617C710.211 112.57 709.734 111.208 709.734 109.531C709.734 107.729 710.221 106.292 711.195 105.219C712.169 104.146 713.495 103.609 715.172 103.609C716.719 103.609 717.964 104.13 718.906 105.172C719.854 106.214 720.328 107.576 720.328 109.258C720.328 111.086 719.844 112.531 718.875 113.594C717.906 114.656 716.609 115.188 714.984 115.188ZM715.078 104.797C713.901 104.797 712.945 105.221 712.211 106.07C711.477 106.919 711.109 108.034 711.109 109.414C711.109 110.794 711.466 111.906 712.18 112.75C712.898 113.589 713.833 114.008 714.984 114.008C716.214 114.008 717.182 113.607 717.891 112.805C718.599 112.003 718.953 110.88 718.953 109.438C718.953 107.958 718.609 106.815 717.922 106.008C717.234 105.201 716.286 104.797 715.078 104.797ZM728.828 115H727.547V113.734H727.516C726.984 114.703 726.161 115.188 725.047 115.188C723.141 115.188 722.188 114.052 722.188 111.781V107H723.461V111.578C723.461 113.266 724.107 114.109 725.398 114.109C726.023 114.109 726.536 113.88 726.938 113.422C727.344 112.958 727.547 112.354 727.547 111.609V107H728.828V115ZM735.133 114.922C734.831 115.089 734.432 115.172 733.938 115.172C732.536 115.172 731.836 114.391 731.836 112.828V108.094H730.461V107H731.836V105.047L733.117 104.633V107H735.133V108.094H733.117V112.602C733.117 113.138 733.208 113.521 733.391 113.75C733.573 113.979 733.875 114.094 734.297 114.094C734.62 114.094 734.898 114.005 735.133 113.828V114.922ZM738.156 113.844H738.125V118.68H736.844V107H738.125V108.406H738.156C738.786 107.344 739.708 106.812 740.922 106.812C741.953 106.812 742.758 107.172 743.336 107.891C743.914 108.604 744.203 109.562 744.203 110.766C744.203 112.104 743.878 113.177 743.227 113.984C742.576 114.786 741.685 115.188 740.555 115.188C739.518 115.188 738.719 114.74 738.156 113.844ZM738.125 110.617V111.734C738.125 112.396 738.339 112.958 738.766 113.422C739.198 113.88 739.745 114.109 740.406 114.109C741.182 114.109 741.789 113.812 742.227 113.219C742.669 112.625 742.891 111.799 742.891 110.742C742.891 109.852 742.685 109.154 742.273 108.648C741.862 108.143 741.305 107.891 740.602 107.891C739.857 107.891 739.258 108.151 738.805 108.672C738.352 109.188 738.125 109.836 738.125 110.617ZM752.719 115H751.438V113.734H751.406C750.875 114.703 750.052 115.188 748.938 115.188C747.031 115.188 746.078 114.052 746.078 111.781V107H747.352V111.578C747.352 113.266 747.997 114.109 749.289 114.109C749.914 114.109 750.427 113.88 750.828 113.422C751.234 112.958 751.438 112.354 751.438 111.609V107H752.719V115ZM759.023 114.922C758.721 115.089 758.323 115.172 757.828 115.172C756.427 115.172 755.727 114.391 755.727 112.828V108.094H754.352V107H755.727V105.047L757.008 104.633V107H759.023V108.094H757.008V112.602C757.008 113.138 757.099 113.521 757.281 113.75C757.464 113.979 757.766 114.094 758.188 114.094C758.51 114.094 758.789 114.005 759.023 113.828V114.922Z" fill="#CED4DA"/>
<circle cx="700" cy="149" r="7" fill="#1864AB"/>
<rect x="300" y="88" width="300" height="186" rx="8" fill="#2C2E33"/>
<path d="M300 96C300 91.5817 303.582 88 308 88H592C596.418 88 600 91.5817 600 96V128H300V96Z" fill="#1864AB"/>
<path d="M314.984 115.188C313.396 115.188 312.122 114.664 311.164 113.617C310.211 112.57 309.734 111.208 309.734 109.531C309.734 107.729 310.221 106.292 311.195 105.219C312.169 104.146 313.495 103.609 315.172 103.609C316.719 103.609 317.964 104.13 318.906 105.172C319.854 106.214 320.328 107.576 320.328 109.258C320.328 111.086 319.844 112.531 318.875 113.594C317.906 114.656 316.609 115.188 314.984 115.188ZM315.078 104.797C313.901 104.797 312.945 105.221 312.211 106.07C311.477 106.919 311.109 108.034 311.109 109.414C311.109 110.794 311.466 111.906 312.18 112.75C312.898 113.589 313.833 114.008 314.984 114.008C316.214 114.008 317.182 113.607 317.891 112.805C318.599 112.003 318.953 110.88 318.953 109.438C318.953 107.958 318.609 106.815 317.922 106.008C317.234 105.201 316.286 104.797 315.078 104.797ZM323.672 113.844H323.641V118.68H322.359V107H323.641V108.406H323.672C324.302 107.344 325.224 106.812 326.438 106.812C327.469 106.812 328.273 107.172 328.852 107.891C329.43 108.604 329.719 109.562 329.719 110.766C329.719 112.104 329.393 113.177 328.742 113.984C328.091 114.786 327.201 115.188 326.07 115.188C325.034 115.188 324.234 114.74 323.672 113.844ZM323.641 110.617V111.734C323.641 112.396 323.854 112.958 324.281 113.422C324.714 113.88 325.26 114.109 325.922 114.109C326.698 114.109 327.305 113.812 327.742 113.219C328.185 112.625 328.406 111.799 328.406 110.742C328.406 109.852 328.201 109.154 327.789 108.648C327.378 108.143 326.82 107.891 326.117 107.891C325.372 107.891 324.773 108.151 324.32 108.672C323.867 109.188 323.641 109.836 323.641 110.617ZM338.195 111.32H332.547C332.568 112.211 332.807 112.898 333.266 113.383C333.724 113.867 334.354 114.109 335.156 114.109C336.057 114.109 336.885 113.812 337.641 113.219V114.422C336.938 114.932 336.008 115.188 334.852 115.188C333.721 115.188 332.833 114.826 332.188 114.102C331.542 113.372 331.219 112.349 331.219 111.031C331.219 109.786 331.57 108.773 332.273 107.992C332.982 107.206 333.859 106.812 334.906 106.812C335.953 106.812 336.763 107.151 337.336 107.828C337.909 108.505 338.195 109.445 338.195 110.648V111.32ZM336.883 110.234C336.878 109.495 336.698 108.919 336.344 108.508C335.995 108.096 335.508 107.891 334.883 107.891C334.279 107.891 333.766 108.107 333.344 108.539C332.922 108.971 332.661 109.536 332.562 110.234H336.883ZM344.312 108.297C344.089 108.125 343.766 108.039 343.344 108.039C342.797 108.039 342.339 108.297 341.969 108.812C341.604 109.328 341.422 110.031 341.422 110.922V115H340.141V107H341.422V108.648H341.453C341.635 108.086 341.914 107.648 342.289 107.336C342.664 107.018 343.083 106.859 343.547 106.859C343.88 106.859 344.135 106.896 344.312 106.969V108.297ZM351.43 115H350.148V113.75H350.117C349.56 114.708 348.74 115.188 347.656 115.188C346.859 115.188 346.234 114.977 345.781 114.555C345.333 114.133 345.109 113.573 345.109 112.875C345.109 111.38 345.99 110.51 347.75 110.266L350.148 109.93C350.148 108.57 349.599 107.891 348.5 107.891C347.536 107.891 346.667 108.219 345.891 108.875V107.562C346.677 107.062 347.583 106.812 348.609 106.812C350.49 106.812 351.43 107.807 351.43 109.797V115ZM350.148 110.953L348.219 111.219C347.625 111.302 347.177 111.451 346.875 111.664C346.573 111.872 346.422 112.245 346.422 112.781C346.422 113.172 346.56 113.492 346.836 113.742C347.117 113.987 347.49 114.109 347.953 114.109C348.589 114.109 349.112 113.888 349.523 113.445C349.94 112.997 350.148 112.432 350.148 111.75V110.953ZM357.555 114.922C357.253 115.089 356.854 115.172 356.359 115.172C354.958 115.172 354.258 114.391 354.258 112.828V108.094H352.883V107H354.258V105.047L355.539 104.633V107H357.555V108.094H355.539V112.602C355.539 113.138 355.63 113.521 355.812 113.75C355.995 113.979 356.297 114.094 356.719 114.094C357.042 114.094 357.32 114.005 357.555 113.828V114.922ZM362.609 115.188C361.427 115.188 360.482 114.815 359.773 114.07C359.07 113.32 358.719 112.328 358.719 111.094C358.719 109.75 359.086 108.701 359.82 107.945C360.555 107.19 361.547 106.812 362.797 106.812C363.99 106.812 364.919 107.18 365.586 107.914C366.258 108.648 366.594 109.667 366.594 110.969C366.594 112.245 366.232 113.268 365.508 114.039C364.789 114.805 363.823 115.188 362.609 115.188ZM362.703 107.891C361.88 107.891 361.229 108.172 360.75 108.734C360.271 109.292 360.031 110.062 360.031 111.047C360.031 111.995 360.273 112.742 360.758 113.289C361.242 113.836 361.891 114.109 362.703 114.109C363.531 114.109 364.167 113.841 364.609 113.305C365.057 112.768 365.281 112.005 365.281 111.016C365.281 110.016 365.057 109.245 364.609 108.703C364.167 108.161 363.531 107.891 362.703 107.891ZM372.812 108.297C372.589 108.125 372.266 108.039 371.844 108.039C371.297 108.039 370.839 108.297 370.469 108.812C370.104 109.328 369.922 110.031 369.922 110.922V115H368.641V107H369.922V108.648H369.953C370.135 108.086 370.414 107.648 370.789 107.336C371.164 107.018 371.583 106.859 372.047 106.859C372.38 106.859 372.635 106.896 372.812 106.969V108.297ZM383.328 106.734C383.328 106.391 383.273 106.091 383.164 105.836C383.06 105.581 382.914 105.37 382.727 105.203C382.544 105.031 382.328 104.904 382.078 104.82C381.828 104.737 381.557 104.695 381.266 104.695C381.016 104.695 380.771 104.729 380.531 104.797C380.292 104.865 380.057 104.958 379.828 105.078C379.604 105.198 379.385 105.341 379.172 105.508C378.964 105.674 378.768 105.859 378.586 106.062V104.688C378.945 104.339 379.346 104.073 379.789 103.891C380.237 103.703 380.781 103.609 381.422 103.609C381.88 103.609 382.305 103.677 382.695 103.812C383.086 103.943 383.424 104.135 383.711 104.391C383.997 104.646 384.221 104.961 384.383 105.336C384.549 105.711 384.633 106.141 384.633 106.625C384.633 107.068 384.581 107.469 384.477 107.828C384.378 108.188 384.224 108.526 384.016 108.844C383.812 109.161 383.555 109.466 383.242 109.758C382.93 110.049 382.562 110.346 382.141 110.648C381.615 111.023 381.18 111.344 380.836 111.609C380.497 111.875 380.227 112.125 380.023 112.359C379.826 112.589 379.685 112.82 379.602 113.055C379.523 113.284 379.484 113.549 379.484 113.852H385.062V115H378.148V114.445C378.148 113.966 378.201 113.544 378.305 113.18C378.409 112.815 378.581 112.469 378.82 112.141C379.06 111.812 379.372 111.484 379.758 111.156C380.148 110.828 380.625 110.458 381.188 110.047C381.594 109.755 381.932 109.477 382.203 109.211C382.479 108.945 382.701 108.68 382.867 108.414C383.034 108.148 383.151 107.88 383.219 107.609C383.292 107.333 383.328 107.042 383.328 106.734ZM387.391 115V103.797H390.484C394.432 103.797 396.406 105.617 396.406 109.258C396.406 110.987 395.857 112.378 394.758 113.43C393.664 114.477 392.198 115 390.359 115H387.391ZM388.703 104.984V113.812H390.375C391.844 113.812 392.987 113.419 393.805 112.633C394.622 111.846 395.031 110.732 395.031 109.289C395.031 106.419 393.505 104.984 390.453 104.984H388.703Z" fill="#CED4DA"/>
<path d="M322.185 143.497L318.295 154H316.94L313.132 143.497H314.501L317.409 151.825C317.502 152.093 317.573 152.403 317.622 152.755H317.651C317.69 152.462 317.771 152.147 317.893 151.81L320.859 143.497H322.185ZM327.802 154H326.601V152.828H326.572C326.049 153.727 325.28 154.176 324.265 154.176C323.518 154.176 322.932 153.978 322.507 153.583C322.087 153.187 321.877 152.662 321.877 152.008C321.877 150.606 322.702 149.791 324.353 149.562L326.601 149.247C326.601 147.972 326.086 147.335 325.056 147.335C324.152 147.335 323.337 147.643 322.609 148.258V147.027C323.347 146.559 324.196 146.324 325.158 146.324C326.921 146.324 327.802 147.257 327.802 149.122V154ZM326.601 150.206L324.792 150.455C324.235 150.533 323.815 150.672 323.532 150.873C323.249 151.068 323.107 151.417 323.107 151.92C323.107 152.286 323.237 152.586 323.496 152.821C323.759 153.05 324.108 153.165 324.543 153.165C325.139 153.165 325.629 152.958 326.015 152.542C326.406 152.123 326.601 151.593 326.601 150.953V150.206ZM331.267 154H330.065V142.896H331.267V154ZM339.763 154H338.562V152.813H338.532C338.034 153.722 337.263 154.176 336.218 154.176C334.431 154.176 333.537 153.111 333.537 150.982V146.5H334.731V150.792C334.731 152.374 335.336 153.165 336.547 153.165C337.133 153.165 337.614 152.95 337.99 152.521C338.371 152.086 338.562 151.52 338.562 150.821V146.5H339.763V154ZM348.222 150.55H342.927C342.946 151.385 343.171 152.03 343.601 152.484C344.03 152.938 344.621 153.165 345.373 153.165C346.218 153.165 346.994 152.887 347.702 152.33V153.458C347.043 153.937 346.171 154.176 345.087 154.176C344.028 154.176 343.195 153.836 342.59 153.158C341.984 152.474 341.682 151.515 341.682 150.279C341.682 149.112 342.011 148.163 342.67 147.43C343.334 146.693 344.157 146.324 345.139 146.324C346.12 146.324 346.879 146.642 347.417 147.276C347.954 147.911 348.222 148.792 348.222 149.92V150.55ZM346.992 149.532C346.987 148.839 346.818 148.299 346.486 147.914C346.159 147.528 345.703 147.335 345.117 147.335C344.55 147.335 344.069 147.538 343.674 147.943C343.278 148.348 343.034 148.878 342.941 149.532H346.992ZM358.249 154H357.048V144.925C356.955 145.018 356.818 145.125 356.638 145.248C356.462 145.365 356.262 145.482 356.037 145.599C355.817 145.716 355.583 145.826 355.334 145.929C355.09 146.031 354.851 146.112 354.616 146.17V144.955C354.88 144.881 355.158 144.784 355.451 144.662C355.749 144.535 356.04 144.396 356.323 144.244C356.611 144.088 356.882 143.927 357.136 143.761C357.39 143.59 357.609 143.424 357.795 143.263H358.249V154Z" fill="#CED4DA"/>
<circle cx="300" cy="149" r="7" fill="#1864AB"/>
<path d="M322.185 178.497L318.295 189H316.94L313.132 178.497H314.501L317.409 186.825C317.502 187.093 317.573 187.403 317.622 187.755H317.651C317.69 187.462 317.771 187.147 317.893 186.81L320.859 178.497H322.185ZM327.802 189H326.601V187.828H326.572C326.049 188.727 325.28 189.176 324.265 189.176C323.518 189.176 322.932 188.978 322.507 188.583C322.087 188.187 321.877 187.662 321.877 187.008C321.877 185.606 322.702 184.791 324.353 184.562L326.601 184.247C326.601 182.972 326.086 182.335 325.056 182.335C324.152 182.335 323.337 182.643 322.609 183.258V182.027C323.347 181.559 324.196 181.324 325.158 181.324C326.921 181.324 327.802 182.257 327.802 184.122V189ZM326.601 185.206L324.792 185.455C324.235 185.533 323.815 185.672 323.532 185.873C323.249 186.068 323.107 186.417 323.107 186.92C323.107 187.286 323.237 187.586 323.496 187.821C323.759 188.05 324.108 188.165 324.543 188.165C325.139 188.165 325.629 187.958 326.015 187.542C326.406 187.123 326.601 186.593 326.601 185.953V185.206ZM331.267 189H330.065V177.896H331.267V189ZM339.763 189H338.562V187.813H338.532C338.034 188.722 337.263 189.176 336.218 189.176C334.431 189.176 333.537 188.111 333.537 185.982V181.5H334.731V185.792C334.731 187.374 335.336 188.165 336.547 188.165C337.133 188.165 337.614 187.95 337.99 187.521C338.371 187.086 338.562 186.52 338.562 185.821V181.5H339.763V189ZM348.222 185.55H342.927C342.946 186.385 343.171 187.03 343.601 187.484C344.03 187.938 344.621 188.165 345.373 188.165C346.218 188.165 346.994 187.887 347.702 187.33V188.458C347.043 188.937 346.171 189.176 345.087 189.176C344.028 189.176 343.195 188.836 342.59 188.158C341.984 187.474 341.682 186.515 341.682 185.279C341.682 184.112 342.011 183.163 342.67 182.43C343.334 181.693 344.157 181.324 345.139 181.324C346.12 181.324 346.879 181.642 347.417 182.276C347.954 182.911 348.222 183.792 348.222 184.92V185.55ZM346.992 184.532C346.987 183.839 346.818 183.299 346.486 182.914C346.159 182.528 345.703 182.335 345.117 182.335C344.55 182.335 344.069 182.538 343.674 182.943C343.278 183.348 343.034 183.878 342.941 184.532H346.992ZM358.601 181.251C358.601 180.929 358.549 180.648 358.447 180.409C358.349 180.169 358.212 179.972 358.037 179.815C357.866 179.654 357.663 179.535 357.429 179.457C357.194 179.378 356.94 179.339 356.667 179.339C356.433 179.339 356.203 179.371 355.979 179.435C355.754 179.498 355.534 179.586 355.319 179.698C355.109 179.811 354.904 179.945 354.704 180.101C354.509 180.257 354.326 180.431 354.155 180.621V179.332C354.492 179.005 354.868 178.756 355.283 178.585C355.703 178.409 356.213 178.321 356.813 178.321C357.243 178.321 357.641 178.385 358.007 178.512C358.374 178.634 358.691 178.814 358.959 179.054C359.228 179.293 359.438 179.588 359.589 179.94C359.746 180.292 359.824 180.694 359.824 181.148C359.824 181.563 359.775 181.939 359.677 182.276C359.584 182.613 359.44 182.931 359.245 183.229C359.055 183.526 358.813 183.812 358.52 184.085C358.227 184.359 357.883 184.637 357.487 184.92C356.994 185.272 356.586 185.572 356.264 185.821C355.947 186.07 355.693 186.305 355.502 186.524C355.317 186.739 355.185 186.957 355.107 187.176C355.034 187.391 354.997 187.64 354.997 187.923H360.227V189H353.745V188.48C353.745 188.031 353.793 187.635 353.891 187.293C353.989 186.952 354.15 186.627 354.375 186.319C354.599 186.012 354.892 185.704 355.253 185.396C355.62 185.089 356.066 184.742 356.594 184.356C356.975 184.083 357.292 183.822 357.546 183.573C357.805 183.324 358.012 183.075 358.168 182.826C358.325 182.577 358.435 182.325 358.498 182.071C358.566 181.812 358.601 181.539 358.601 181.251Z" fill="#CED4DA"/>
<circle cx="300" cy="184" r="7" fill="#1864AB"/>
<path d="M555.931 154H554.466L552.708 151.056C552.547 150.782 552.391 150.55 552.239 150.36C552.088 150.165 551.932 150.006 551.771 149.884C551.614 149.762 551.443 149.674 551.258 149.62C551.077 149.562 550.872 149.532 550.643 149.532H549.632V154H548.401V143.497H551.536C551.995 143.497 552.417 143.556 552.803 143.673C553.194 143.785 553.531 143.958 553.814 144.193C554.102 144.427 554.327 144.72 554.488 145.072C554.649 145.418 554.729 145.826 554.729 146.295C554.729 146.661 554.673 146.998 554.561 147.306C554.454 147.608 554.297 147.879 554.092 148.119C553.892 148.358 553.648 148.563 553.36 148.734C553.077 148.9 552.757 149.029 552.4 149.122V149.151C552.576 149.229 552.728 149.32 552.854 149.422C552.986 149.52 553.111 149.637 553.228 149.774C553.345 149.911 553.46 150.067 553.572 150.243C553.689 150.414 553.819 150.614 553.96 150.843L555.931 154ZM549.632 144.61V148.419H551.302C551.609 148.419 551.893 148.373 552.151 148.28C552.415 148.187 552.642 148.055 552.833 147.884C553.023 147.708 553.172 147.496 553.279 147.247C553.387 146.993 553.44 146.71 553.44 146.397C553.44 145.836 553.257 145.399 552.891 145.086C552.53 144.769 552.005 144.61 551.316 144.61H549.632ZM562.808 150.55H557.513C557.532 151.385 557.757 152.03 558.187 152.484C558.616 152.938 559.207 153.165 559.959 153.165C560.804 153.165 561.58 152.887 562.288 152.33V153.458C561.629 153.937 560.757 154.176 559.673 154.176C558.614 154.176 557.781 153.836 557.176 153.158C556.57 152.474 556.268 151.515 556.268 150.279C556.268 149.112 556.597 148.163 557.256 147.43C557.92 146.693 558.743 146.324 559.725 146.324C560.706 146.324 561.465 146.642 562.002 147.276C562.54 147.911 562.808 148.792 562.808 149.92V150.55ZM561.578 149.532C561.573 148.839 561.404 148.299 561.072 147.914C560.745 147.528 560.289 147.335 559.703 147.335C559.136 147.335 558.655 147.538 558.26 147.943C557.864 148.348 557.62 148.878 557.527 149.532H561.578ZM564.178 153.729V152.44C564.832 152.923 565.552 153.165 566.338 153.165C567.393 153.165 567.92 152.813 567.92 152.11C567.92 151.91 567.874 151.742 567.781 151.605C567.693 151.463 567.571 151.339 567.415 151.231C567.264 151.124 567.083 151.029 566.873 150.946C566.668 150.858 566.446 150.768 566.207 150.675C565.875 150.543 565.582 150.411 565.328 150.279C565.079 150.143 564.869 149.991 564.698 149.825C564.532 149.654 564.405 149.461 564.317 149.247C564.234 149.032 564.192 148.78 564.192 148.492C564.192 148.141 564.273 147.831 564.434 147.562C564.595 147.289 564.81 147.062 565.079 146.881C565.347 146.695 565.652 146.556 565.994 146.463C566.341 146.371 566.697 146.324 567.063 146.324C567.713 146.324 568.294 146.437 568.807 146.661V147.877C568.255 147.516 567.62 147.335 566.902 147.335C566.678 147.335 566.475 147.362 566.294 147.416C566.114 147.464 565.958 147.535 565.826 147.628C565.699 147.721 565.599 147.833 565.525 147.965C565.457 148.092 565.423 148.233 565.423 148.39C565.423 148.585 565.457 148.749 565.525 148.88C565.599 149.012 565.704 149.129 565.84 149.232C565.977 149.334 566.143 149.427 566.338 149.51C566.534 149.593 566.756 149.684 567.005 149.781C567.337 149.908 567.635 150.04 567.898 150.177C568.162 150.309 568.387 150.46 568.572 150.631C568.758 150.797 568.899 150.99 568.997 151.209C569.1 151.429 569.151 151.69 569.151 151.993C569.151 152.364 569.068 152.687 568.902 152.96C568.741 153.233 568.523 153.46 568.25 153.641C567.977 153.822 567.662 153.956 567.305 154.044C566.949 154.132 566.575 154.176 566.185 154.176C565.413 154.176 564.744 154.027 564.178 153.729ZM577.068 154H575.867V152.813H575.838C575.34 153.722 574.568 154.176 573.523 154.176C571.736 154.176 570.843 153.111 570.843 150.982V146.5H572.037V150.792C572.037 152.374 572.642 153.165 573.853 153.165C574.439 153.165 574.92 152.95 575.296 152.521C575.677 152.086 575.867 151.52 575.867 150.821V146.5H577.068V154ZM580.701 154H579.5V142.896H580.701V154ZM586.612 153.927C586.329 154.083 585.955 154.161 585.491 154.161C584.178 154.161 583.521 153.429 583.521 151.964V147.525H582.232V146.5H583.521V144.669L584.722 144.281V146.5H586.612V147.525H584.722V151.751C584.722 152.254 584.808 152.613 584.979 152.828C585.149 153.043 585.433 153.15 585.828 153.15C586.131 153.15 586.392 153.067 586.612 152.901V153.927Z" fill="#CED4DA"/>
<circle cx="600" cy="149" r="7" fill="#1864AB"/>
<path d="M318.64 224.183C317.136 224.183 315.91 223.695 314.963 222.718C314.016 221.737 313.542 220.46 313.542 218.888C313.542 217.228 314.023 215.885 314.985 214.859C315.947 213.834 317.221 213.321 318.808 213.321C320.307 213.321 321.518 213.812 322.441 214.793C323.369 215.775 323.833 217.069 323.833 218.675C323.833 220.326 323.352 221.656 322.39 222.667C321.433 223.678 320.183 224.183 318.64 224.183ZM318.742 215.357C317.912 215.357 317.253 215.67 316.765 216.295C316.276 216.915 316.032 217.738 316.032 218.763C316.032 219.803 316.276 220.626 316.765 221.231C317.253 221.837 317.893 222.14 318.684 222.14C319.499 222.14 320.146 221.847 320.625 221.261C321.103 220.67 321.342 219.852 321.342 218.807C321.342 217.718 321.11 216.871 320.646 216.266C320.183 215.66 319.548 215.357 318.742 215.357ZM327.7 223.128H327.67V227.45H325.356V216.5H327.67V217.628H327.7C328.271 216.754 329.074 216.317 330.109 216.317C331.081 216.317 331.831 216.651 332.358 217.32C332.89 217.984 333.156 218.89 333.156 220.038C333.156 221.288 332.846 222.291 332.226 223.048C331.611 223.805 330.791 224.183 329.765 224.183C328.862 224.183 328.173 223.832 327.7 223.128ZM327.634 220.052V220.653C327.634 221.17 327.771 221.593 328.044 221.92C328.317 222.247 328.676 222.411 329.121 222.411C329.648 222.411 330.056 222.208 330.344 221.803C330.637 221.393 330.783 220.814 330.783 220.067C330.783 218.749 330.271 218.089 329.245 218.089C328.771 218.089 328.383 218.27 328.081 218.631C327.783 218.988 327.634 219.461 327.634 220.052ZM341.396 220.909H336.503C336.582 221.998 337.268 222.542 338.562 222.542C339.387 222.542 340.112 222.347 340.737 221.957V223.626C340.043 223.998 339.143 224.183 338.034 224.183C336.823 224.183 335.883 223.849 335.214 223.18C334.545 222.506 334.211 221.568 334.211 220.367C334.211 219.122 334.572 218.136 335.295 217.408C336.018 216.681 336.906 216.317 337.961 216.317C339.055 216.317 339.899 216.642 340.495 217.291C341.096 217.94 341.396 218.822 341.396 219.935V220.909ZM339.25 219.488C339.25 218.414 338.815 217.877 337.946 217.877C337.575 217.877 337.253 218.031 336.979 218.338C336.711 218.646 336.547 219.029 336.489 219.488H339.25ZM347.666 218.587C347.387 218.436 347.062 218.36 346.691 218.36C346.188 218.36 345.795 218.546 345.512 218.917C345.229 219.283 345.087 219.784 345.087 220.418V224H342.773V216.5H345.087V217.892H345.117C345.483 216.876 346.142 216.368 347.094 216.368C347.338 216.368 347.529 216.397 347.666 216.456V218.587ZM354.99 224H352.8V222.923H352.771C352.268 223.763 351.523 224.183 350.537 224.183C349.809 224.183 349.235 223.978 348.815 223.568C348.4 223.153 348.193 222.601 348.193 221.913C348.193 220.458 349.055 219.618 350.778 219.393L352.814 219.122C352.814 218.302 352.37 217.892 351.481 217.892C350.588 217.892 349.738 218.158 348.933 218.69V216.947C349.255 216.781 349.694 216.634 350.251 216.507C350.812 216.38 351.323 216.317 351.782 216.317C353.92 216.317 354.99 217.384 354.99 219.518V224ZM352.814 220.953V220.448L351.452 220.624C350.7 220.721 350.324 221.061 350.324 221.642C350.324 221.905 350.415 222.123 350.595 222.293C350.781 222.459 351.03 222.542 351.342 222.542C351.777 222.542 352.131 222.394 352.404 222.096C352.678 221.793 352.814 221.412 352.814 220.953ZM361.354 223.912C361.013 224.093 360.498 224.183 359.809 224.183C358.178 224.183 357.363 223.336 357.363 221.642V218.207H356.147V216.5H357.363V214.881L359.67 214.222V216.5H361.354V218.207H359.67V221.239C359.67 222.02 359.98 222.411 360.6 222.411C360.844 222.411 361.096 222.34 361.354 222.198V223.912ZM366.181 224.183C364.931 224.183 363.947 223.834 363.229 223.136C362.517 222.433 362.16 221.48 362.16 220.279C362.16 219.039 362.531 218.07 363.273 217.372C364.016 216.668 365.019 216.317 366.284 216.317C367.529 216.317 368.505 216.668 369.213 217.372C369.921 218.07 370.275 218.995 370.275 220.147C370.275 221.393 369.909 222.376 369.177 223.099C368.449 223.822 367.451 224.183 366.181 224.183ZM366.24 218.089C365.693 218.089 365.268 218.277 364.965 218.653C364.663 219.029 364.511 219.562 364.511 220.25C364.511 221.69 365.092 222.411 366.254 222.411C367.363 222.411 367.917 221.671 367.917 220.191C367.917 218.79 367.358 218.089 366.24 218.089ZM376.669 218.587C376.391 218.436 376.066 218.36 375.695 218.36C375.192 218.36 374.799 218.546 374.516 218.917C374.233 219.283 374.091 219.784 374.091 220.418V224H371.777V216.5H374.091V217.892H374.121C374.487 216.876 375.146 216.368 376.098 216.368C376.342 216.368 376.533 216.397 376.669 216.456V218.587Z" fill="#CED4DA"/>
<rect x="305" y="233" width="290" height="36" rx="8" fill="#1A1B1E"/>
<rect x="479" y="236" width="59" height="30" rx="5" fill="#373A40"/>
<path d="M340.439 251.754H334.916V257.264H333.098V251.754H327.588V249.922H333.098V244.412H334.916V249.922H340.439V251.754Z" fill="#7B7D84"/>
<path d="M396.828 252.082H389.363V250.318H396.828V252.082Z" fill="#7B7D84"/>
<path d="M455.826 250.906L452.08 251.672L454.678 254.994L453.174 256.033L451.041 252.41L448.881 256.033L447.377 254.994L449.975 251.672L446.201 250.906L446.816 249.197L450.398 250.551L450.084 246.395H451.971L451.656 250.551L455.252 249.197L455.826 250.906Z" fill="#7B7D84"/>
<path d="M513.326 242.996L506.559 259.324H504.498L511.236 242.996H513.326Z" fill="#CED4DA"/>
<path d="M562.654 251.027C561.665 251.027 560.877 250.712 560.291 250.08C559.705 249.442 559.412 248.592 559.412 247.531C559.412 246.372 559.721 245.461 560.34 244.797C560.965 244.126 561.805 243.791 562.859 243.791C563.882 243.791 564.673 244.1 565.232 244.719C565.799 245.337 566.082 246.206 566.082 247.326C566.082 248.446 565.766 249.344 565.135 250.021C564.503 250.692 563.676 251.027 562.654 251.027ZM562.791 245.158C562.257 245.158 561.834 245.363 561.521 245.773C561.215 246.184 561.062 246.747 561.062 247.463C561.062 248.166 561.212 248.713 561.512 249.104C561.818 249.494 562.234 249.689 562.762 249.689C563.289 249.689 563.702 249.488 564.002 249.084C564.301 248.674 564.451 248.107 564.451 247.385C564.451 246.682 564.301 246.135 564.002 245.744C563.709 245.354 563.305 245.158 562.791 245.158ZM572.137 243.996L563.152 258.098H561.756L570.73 243.996H572.137ZM570.877 258.215C569.887 258.215 569.1 257.899 568.514 257.268C567.928 256.63 567.635 255.78 567.635 254.719C567.635 253.56 567.944 252.648 568.562 251.984C569.188 251.314 570.027 250.979 571.082 250.979C572.104 250.979 572.895 251.288 573.455 251.906C574.021 252.525 574.305 253.394 574.305 254.514C574.305 255.633 573.989 256.532 573.357 257.209C572.726 257.88 571.899 258.215 570.877 258.215ZM571.014 252.346C570.48 252.346 570.057 252.551 569.744 252.961C569.438 253.371 569.285 253.934 569.285 254.65C569.285 255.354 569.435 255.9 569.734 256.291C570.04 256.682 570.457 256.877 570.984 256.877C571.512 256.877 571.925 256.675 572.225 256.271C572.524 255.861 572.674 255.295 572.674 254.572C572.674 253.869 572.524 253.322 572.225 252.932C571.932 252.541 571.528 252.346 571.014 252.346Z" fill="#7B7D84"/>
<rect x="363" y="240" width="1" height="22" fill="#373A40"/>
<rect x="421" y="240" width="1" height="22" fill="#373A40"/>
<rect x="479" y="240" width="1" height="22" fill="#373A40"/>
<rect x="537" y="240" width="1" height="22" fill="#373A40"/>
<rect y="194" width="200" height="80" rx="8" fill="#2C2E33"/>
<path d="M0 202C0 197.582 3.58172 194 8 194H192C196.418 194 200 197.582 200 202V234H0V202Z" fill="#1864AB"/>
<path d="M19.5 221H17.8906L12.125 212.07C11.9792 211.846 11.8594 211.612 11.7656 211.367H11.7188C11.7604 211.607 11.7812 212.12 11.7812 212.906V221H10.4688V209.797H12.1719L17.7812 218.586C18.0156 218.951 18.1667 219.201 18.2344 219.336H18.2656C18.2135 219.013 18.1875 218.464 18.1875 217.688V209.797H19.5V221ZM28.7344 221H27.4531V219.734H27.4219C26.8906 220.703 26.0677 221.188 24.9531 221.188C23.0469 221.188 22.0938 220.052 22.0938 217.781V213H23.3672V217.578C23.3672 219.266 24.013 220.109 25.3047 220.109C25.9297 220.109 26.4427 219.88 26.8438 219.422C27.25 218.958 27.4531 218.354 27.4531 217.609V213H28.7344V221ZM42.6875 221H41.4062V216.406C41.4062 215.521 41.2682 214.88 40.9922 214.484C40.7214 214.089 40.263 213.891 39.6172 213.891C39.0703 213.891 38.6042 214.141 38.2188 214.641C37.8385 215.141 37.6484 215.74 37.6484 216.438V221H36.3672V216.25C36.3672 214.677 35.7604 213.891 34.5469 213.891C33.9844 213.891 33.5208 214.128 33.1562 214.602C32.7917 215.07 32.6094 215.682 32.6094 216.438V221H31.3281V213H32.6094V214.266H32.6406C33.2083 213.297 34.0365 212.812 35.125 212.812C35.6719 212.812 36.1484 212.966 36.5547 213.273C36.9609 213.576 37.2396 213.974 37.3906 214.469C37.9844 213.365 38.8698 212.812 40.0469 212.812C41.8073 212.812 42.6875 213.898 42.6875 216.07V221ZM46.4219 219.844H46.3906V221H45.1094V209.156H46.3906V214.406H46.4219C47.0521 213.344 47.974 212.812 49.1875 212.812C50.2135 212.812 51.0156 213.172 51.5938 213.891C52.1771 214.604 52.4688 215.562 52.4688 216.766C52.4688 218.104 52.1432 219.177 51.4922 219.984C50.8411 220.786 49.9505 221.188 48.8203 221.188C47.763 221.188 46.9635 220.74 46.4219 219.844ZM46.3906 216.617V217.734C46.3906 218.396 46.6042 218.958 47.0312 219.422C47.4635 219.88 48.0104 220.109 48.6719 220.109C49.4479 220.109 50.0547 219.812 50.4922 219.219C50.9349 218.625 51.1562 217.799 51.1562 216.742C51.1562 215.852 50.9505 215.154 50.5391 214.648C50.1276 214.143 49.5703 213.891 48.8672 213.891C48.1224 213.891 47.5234 214.151 47.0703 214.672C46.6172 215.188 46.3906 215.836 46.3906 216.617ZM60.9453 217.32H55.2969C55.3177 218.211 55.5573 218.898 56.0156 219.383C56.474 219.867 57.1042 220.109 57.9062 220.109C58.8073 220.109 59.6354 219.812 60.3906 219.219V220.422C59.6875 220.932 58.7578 221.188 57.6016 221.188C56.4714 221.188 55.5833 220.826 54.9375 220.102C54.2917 219.372 53.9688 218.349 53.9688 217.031C53.9688 215.786 54.3203 214.773 55.0234 213.992C55.7318 213.206 56.6094 212.812 57.6562 212.812C58.7031 212.812 59.513 213.151 60.0859 213.828C60.6589 214.505 60.9453 215.445 60.9453 216.648V217.32ZM59.6328 216.234C59.6276 215.495 59.4479 214.919 59.0938 214.508C58.7448 214.096 58.2578 213.891 57.6328 213.891C57.0286 213.891 56.5156 214.107 56.0938 214.539C55.6719 214.971 55.4115 215.536 55.3125 216.234H59.6328ZM67.0625 214.297C66.8385 214.125 66.5156 214.039 66.0938 214.039C65.5469 214.039 65.0885 214.297 64.7188 214.812C64.3542 215.328 64.1719 216.031 64.1719 216.922V221H62.8906V213H64.1719V214.648H64.2031C64.3854 214.086 64.6641 213.648 65.0391 213.336C65.4141 213.018 65.8333 212.859 66.2969 212.859C66.6302 212.859 66.8854 212.896 67.0625 212.969V214.297Z" fill="#CED4DA"/>
<circle cx="200" cy="255" r="7" fill="#1864AB"/>
<rect x="10" y="239" width="180" height="30" rx="8" fill="#1A1B1E"/>
<path d="M10 247C10 242.582 13.5817 239 18 239H44V269H18C13.5817 269 10 265.418 10 261V247Z" fill="#373A40"/>
<path d="M20 254L30.5 247.938V260.062L20 254Z" fill="#C1C2C5"/>
<path d="M156 239H182C186.418 239 190 242.582 190 247V261C190 265.418 186.418 269 182 269H156V239Z" fill="#373A40"/>
<path d="M180 254L169.5 260.062V247.938L180 254Z" fill="#C1C2C5"/>
<path d="M103.531 254.727C103.531 255.753 103.43 256.667 103.227 257.469C103.023 258.266 102.727 258.943 102.336 259.5C101.945 260.052 101.469 260.474 100.906 260.766C100.344 261.052 99.7031 261.195 98.9844 261.195C98.2448 261.195 97.5938 261.065 97.0312 260.805V259.578C97.651 259.927 98.3125 260.102 99.0156 260.102C99.5208 260.102 99.9714 259.997 100.367 259.789C100.768 259.581 101.107 259.279 101.383 258.883C101.659 258.482 101.87 257.99 102.016 257.406C102.161 256.823 102.234 256.154 102.234 255.398H102.203C101.724 256.362 100.891 256.844 99.7031 256.844C99.224 256.844 98.7839 256.76 98.3828 256.594C97.9818 256.422 97.6354 256.182 97.3438 255.875C97.0521 255.562 96.8255 255.193 96.6641 254.766C96.5026 254.339 96.4219 253.867 96.4219 253.352C96.4219 252.799 96.5104 252.294 96.6875 251.836C96.8698 251.378 97.1198 250.984 97.4375 250.656C97.7604 250.323 98.1406 250.065 98.5781 249.883C99.0208 249.701 99.5026 249.609 100.023 249.609C100.586 249.609 101.083 249.724 101.516 249.953C101.953 250.177 102.32 250.508 102.617 250.945C102.914 251.378 103.141 251.911 103.297 252.547C103.453 253.182 103.531 253.909 103.531 254.727ZM102.148 253.578C102.148 253.146 102.091 252.753 101.977 252.398C101.867 252.044 101.714 251.742 101.516 251.492C101.318 251.237 101.081 251.042 100.805 250.906C100.534 250.766 100.237 250.695 99.9141 250.695C99.6068 250.695 99.3203 250.758 99.0547 250.883C98.7891 251.003 98.5573 251.174 98.3594 251.398C98.1667 251.617 98.013 251.88 97.8984 252.188C97.7891 252.49 97.7344 252.82 97.7344 253.18C97.7344 253.576 97.7865 253.93 97.8906 254.242C98 254.555 98.1536 254.82 98.3516 255.039C98.5495 255.253 98.7865 255.417 99.0625 255.531C99.3438 255.646 99.6536 255.703 99.9922 255.703C100.289 255.703 100.568 255.648 100.828 255.539C101.094 255.424 101.323 255.273 101.516 255.086C101.714 254.893 101.867 254.669 101.977 254.414C102.091 254.154 102.148 253.875 102.148 253.578Z" fill="#CED4DA"/>
<rect y="88" width="200" height="80" rx="8" fill="#2C2E33"/>
<path d="M0 96C0 91.5817 3.58172 88 8 88H192C196.418 88 200 91.5817 200 96V128H0V96Z" fill="#1864AB"/>
<path d="M19.5 115H17.8906L12.125 106.07C11.9792 105.846 11.8594 105.612 11.7656 105.367H11.7188C11.7604 105.607 11.7812 106.12 11.7812 106.906V115H10.4688V103.797H12.1719L17.7812 112.586C18.0156 112.951 18.1667 113.201 18.2344 113.336H18.2656C18.2135 113.013 18.1875 112.464 18.1875 111.688V103.797H19.5V115ZM28.7344 115H27.4531V113.734H27.4219C26.8906 114.703 26.0677 115.188 24.9531 115.188C23.0469 115.188 22.0938 114.052 22.0938 111.781V107H23.3672V111.578C23.3672 113.266 24.013 114.109 25.3047 114.109C25.9297 114.109 26.4427 113.88 26.8438 113.422C27.25 112.958 27.4531 112.354 27.4531 111.609V107H28.7344V115ZM42.6875 115H41.4062V110.406C41.4062 109.521 41.2682 108.88 40.9922 108.484C40.7214 108.089 40.263 107.891 39.6172 107.891C39.0703 107.891 38.6042 108.141 38.2188 108.641C37.8385 109.141 37.6484 109.74 37.6484 110.438V115H36.3672V110.25C36.3672 108.677 35.7604 107.891 34.5469 107.891C33.9844 107.891 33.5208 108.128 33.1562 108.602C32.7917 109.07 32.6094 109.682 32.6094 110.438V115H31.3281V107H32.6094V108.266H32.6406C33.2083 107.297 34.0365 106.812 35.125 106.812C35.6719 106.812 36.1484 106.966 36.5547 107.273C36.9609 107.576 37.2396 107.974 37.3906 108.469C37.9844 107.365 38.8698 106.812 40.0469 106.812C41.8073 106.812 42.6875 107.898 42.6875 110.07V115ZM46.4219 113.844H46.3906V115H45.1094V103.156H46.3906V108.406H46.4219C47.0521 107.344 47.974 106.812 49.1875 106.812C50.2135 106.812 51.0156 107.172 51.5938 107.891C52.1771 108.604 52.4688 109.562 52.4688 110.766C52.4688 112.104 52.1432 113.177 51.4922 113.984C50.8411 114.786 49.9505 115.188 48.8203 115.188C47.763 115.188 46.9635 114.74 46.4219 113.844ZM46.3906 110.617V111.734C46.3906 112.396 46.6042 112.958 47.0312 113.422C47.4635 113.88 48.0104 114.109 48.6719 114.109C49.4479 114.109 50.0547 113.812 50.4922 113.219C50.9349 112.625 51.1562 111.799 51.1562 110.742C51.1562 109.852 50.9505 109.154 50.5391 108.648C50.1276 108.143 49.5703 107.891 48.8672 107.891C48.1224 107.891 47.5234 108.151 47.0703 108.672C46.6172 109.188 46.3906 109.836 46.3906 110.617ZM60.9453 111.32H55.2969C55.3177 112.211 55.5573 112.898 56.0156 113.383C56.474 113.867 57.1042 114.109 57.9062 114.109C58.8073 114.109 59.6354 113.812 60.3906 113.219V114.422C59.6875 114.932 58.7578 115.188 57.6016 115.188C56.4714 115.188 55.5833 114.826 54.9375 114.102C54.2917 113.372 53.9688 112.349 53.9688 111.031C53.9688 109.786 54.3203 108.773 55.0234 107.992C55.7318 107.206 56.6094 106.812 57.6562 106.812C58.7031 106.812 59.513 107.151 60.0859 107.828C60.6589 108.505 60.9453 109.445 60.9453 110.648V111.32ZM59.6328 110.234C59.6276 109.495 59.4479 108.919 59.0938 108.508C58.7448 108.096 58.2578 107.891 57.6328 107.891C57.0286 107.891 56.5156 108.107 56.0938 108.539C55.6719 108.971 55.4115 109.536 55.3125 110.234H59.6328ZM67.0625 108.297C66.8385 108.125 66.5156 108.039 66.0938 108.039C65.5469 108.039 65.0885 108.297 64.7188 108.812C64.3542 109.328 64.1719 110.031 64.1719 110.922V115H62.8906V107H64.1719V108.648H64.2031C64.3854 108.086 64.6641 107.648 65.0391 107.336C65.4141 107.018 65.8333 106.859 66.2969 106.859C66.6302 106.859 66.8854 106.896 67.0625 106.969V108.297Z" fill="#CED4DA"/>
<circle cx="200" cy="149" r="7" fill="#1864AB"/>
<rect x="10" y="133" width="180" height="30" rx="8" fill="#1A1B1E"/>
<path d="M10 141C10 136.582 13.5817 133 18 133H44V163H18C13.5817 163 10 159.418 10 155V141Z" fill="#373A40"/>
<path d="M20 148L30.5 141.938V154.062L20 148Z" fill="#C1C2C5"/>
<path d="M156 133H182C186.418 133 190 136.582 190 141V155C190 159.418 186.418 163 182 163H156V133Z" fill="#373A40"/>
<path d="M180 148L169.5 154.062V141.938L180 148Z" fill="#C1C2C5"/>
<path d="M92.7188 155H91.4375V145.32C91.3385 145.419 91.1927 145.534 91 145.664C90.8125 145.789 90.599 145.914 90.3594 146.039C90.125 146.164 89.875 146.281 89.6094 146.391C89.349 146.5 89.0938 146.586 88.8438 146.648V145.352C89.125 145.273 89.4219 145.169 89.7344 145.039C90.0521 144.904 90.362 144.755 90.6641 144.594C90.9714 144.427 91.2604 144.255 91.5312 144.078C91.8021 143.896 92.0365 143.719 92.2344 143.547H92.7188V155ZM101.719 146.734C101.719 146.391 101.664 146.091 101.555 145.836C101.451 145.581 101.305 145.37 101.117 145.203C100.935 145.031 100.719 144.904 100.469 144.82C100.219 144.737 99.9479 144.695 99.6562 144.695C99.4062 144.695 99.1615 144.729 98.9219 144.797C98.6823 144.865 98.4479 144.958 98.2188 145.078C97.9948 145.198 97.776 145.341 97.5625 145.508C97.3542 145.674 97.1589 145.859 96.9766 146.062V144.688C97.3359 144.339 97.737 144.073 98.1797 143.891C98.6276 143.703 99.1719 143.609 99.8125 143.609C100.271 143.609 100.695 143.677 101.086 143.812C101.477 143.943 101.815 144.135 102.102 144.391C102.388 144.646 102.612 144.961 102.773 145.336C102.94 145.711 103.023 146.141 103.023 146.625C103.023 147.068 102.971 147.469 102.867 147.828C102.768 148.188 102.615 148.526 102.406 148.844C102.203 149.161 101.945 149.466 101.633 149.758C101.32 150.049 100.953 150.346 100.531 150.648C100.005 151.023 99.5703 151.344 99.2266 151.609C98.888 151.875 98.6172 152.125 98.4141 152.359C98.2161 152.589 98.0755 152.82 97.9922 153.055C97.9141 153.284 97.875 153.549 97.875 153.852H103.453V155H96.5391V154.445C96.5391 153.966 96.5911 153.544 96.6953 153.18C96.7995 152.815 96.9714 152.469 97.2109 152.141C97.4505 151.812 97.763 151.484 98.1484 151.156C98.5391 150.828 99.0156 150.458 99.5781 150.047C99.9844 149.755 100.323 149.477 100.594 149.211C100.87 148.945 101.091 148.68 101.258 148.414C101.424 148.148 101.542 147.88 101.609 147.609C101.682 147.333 101.719 147.042 101.719 146.734ZM112.297 151.445C112.297 151.992 112.208 152.495 112.031 152.953C111.854 153.411 111.609 153.807 111.297 154.141C110.984 154.474 110.612 154.734 110.18 154.922C109.747 155.104 109.279 155.195 108.773 155.195C108.211 155.195 107.706 155.078 107.258 154.844C106.815 154.609 106.438 154.273 106.125 153.836C105.818 153.393 105.583 152.854 105.422 152.219C105.26 151.583 105.18 150.867 105.18 150.07C105.18 149.096 105.286 148.214 105.5 147.422C105.719 146.625 106.026 145.945 106.422 145.383C106.823 144.815 107.305 144.378 107.867 144.07C108.43 143.763 109.057 143.609 109.75 143.609C110.521 143.609 111.141 143.716 111.609 143.93V145.141C111.031 144.844 110.422 144.695 109.781 144.695C109.281 144.695 108.831 144.807 108.43 145.031C108.029 145.255 107.685 145.573 107.398 145.984C107.112 146.391 106.891 146.883 106.734 147.461C106.583 148.039 106.508 148.682 106.508 149.391H106.539C107.055 148.458 107.906 147.992 109.094 147.992C109.583 147.992 110.023 148.076 110.414 148.242C110.81 148.409 111.146 148.646 111.422 148.953C111.703 149.255 111.919 149.617 112.07 150.039C112.221 150.461 112.297 150.93 112.297 151.445ZM110.984 151.609C110.984 151.219 110.935 150.867 110.836 150.555C110.737 150.242 110.594 149.977 110.406 149.758C110.224 149.539 109.997 149.372 109.727 149.258C109.456 149.138 109.148 149.078 108.805 149.078C108.487 149.078 108.193 149.138 107.922 149.258C107.651 149.378 107.417 149.542 107.219 149.75C107.021 149.953 106.865 150.193 106.75 150.469C106.641 150.74 106.586 151.029 106.586 151.336C106.586 151.721 106.641 152.083 106.75 152.422C106.859 152.755 107.013 153.047 107.211 153.297C107.409 153.547 107.643 153.745 107.914 153.891C108.19 154.031 108.495 154.102 108.828 154.102C109.151 154.102 109.445 154.042 109.711 153.922C109.977 153.797 110.203 153.625 110.391 153.406C110.578 153.188 110.724 152.927 110.828 152.625C110.932 152.318 110.984 151.979 110.984 151.609Z" fill="#CED4DA"/>
<path d="M140.781 16.2664C140.781 12.9502 137.609 15.5313 136.863 17.2038C135.713 19.7833 134.904 27.6273 139.955 24.2129C144.158 21.3719 141.423 17.1103 139.27 14" stroke="#C1C2C5" stroke-width="2" stroke-linecap="round"/>
<path d="M153.146 17.0344C152.62 16.0411 151.635 15.083 150.404 15.2436C147.666 15.6007 146.415 18.3468 146.039 20.7838C145.868 21.893 146.183 26.2394 148.46 24.5471C153.661 20.6811 153.665 10.0831 153.272 4.34517C152.814 -2.34129 154.27 17.7333 155.413 24.3373" stroke="#C1C2C5" stroke-width="2" stroke-linecap="round"/>
<path d="M160.935 20.671C161.045 21.1107 162.02 20.9393 162.334 20.8669C163.951 20.4938 163.905 16.6789 163.369 15.6345C161.86 12.6897 157.914 20.8073 159.284 23.3851C160.937 26.4948 165.079 24.2254 167.231 23.1892" stroke="#C1C2C5" stroke-width="2" stroke-linecap="round"/>
<path d="M120 3.83829C120.586 2.00735 120.237 4.78058 120.252 5.4052C120.407 12.0149 120.912 18.6595 121.511 25.2434" stroke="#C1C2C5" stroke-width="2" stroke-linecap="round"/>
<path d="M121.007 3.33464C120.46 2.85563 121.473 4.76855 121.511 4.84559C124.374 10.7176 128.615 19.1401 131.5 25" stroke="#C1C2C5" stroke-width="2" stroke-linecap="round"/>
<path d="M131.584 3.33463C131.584 -3.29676 131.488 18.3693 131.584 25" stroke="#C1C2C5" stroke-width="2" stroke-linecap="round"/>
<path d="M115.84 29.8284C116.961 27.7096 114.116 31.9686 114.049 32.0808C104.861 47.4306 99.5 67.6233 99.5 85.5" stroke="#C1C2C5" stroke-width="2" stroke-linecap="round"/>
<path d="M93.1753 74.4014C92.9657 73.7464 92.8026 73.1994 93.3432 74.1776C95.4998 78.08 97.2885 82.2235 99.2191 86.2372" stroke="#C1C2C5" stroke-width="2" stroke-linecap="round"/>
<path d="M99.9746 85.7336C99.8018 85.7089 106.047 76.5081 106.774 75.6606" stroke="#C1C2C5" stroke-width="2" stroke-linecap="round"/>
<path d="M518 6C517.97 5.49343 516 2.5 513.367 2.25614C510.733 2.01227 508.271 5.68766 507.5 7C504.837 11.5295 502.365 20.8406 508.62 24.4487C512.343 26.5954 516.097 21.9548 518 19.4087" stroke="#C1C2C5" stroke-width="2" stroke-linecap="round"/>
<path d="M527.724 16.8739C527.895 16.5444 528.105 16.1808 527.94 15.8113C526.879 13.4472 523.505 16.9269 522.891 17.6849C521.483 19.4221 520.08 22.1525 521.783 24.2004C523.05 25.7242 525.042 24.7967 526.046 23.6831C528.051 21.4604 528.247 18.2795 527.447 15.6156" stroke="#C1C2C5" stroke-width="2" stroke-linecap="round"/>
<path d="M532.104 16.2525C532.104 12.552 531.411 26.2621 533.604 23.0267C534.263 22.0542 539.401 12.4826 539.802 15.634C540.194 18.7107 539.771 21.8966 540 25" stroke="#C1C2C5" stroke-width="2" stroke-linecap="round"/>
<path d="M544 13.5271C544 10.9105 544.305 18.7521 544.588 21.3495C544.604 21.4913 544.657 26.4821 545.725 24.5602C546.888 22.4693 547.642 20.1108 548.719 17.9637C548.879 17.6451 551.012 13.1074 551.542 15.3076C552.203 18.0486 551.869 21.4523 552 24.2975" stroke="#C1C2C5" stroke-width="2" stroke-linecap="round"/>
<path d="M556.12 20.7076C556.451 22.1631 563.923 18.2155 563 15.5C562.367 13.6376 558.5 13.897 556.956 16.9681C555.909 19.0517 555.396 22.1386 557.155 23.9797C559.264 26.1869 562.135 24.3514 564 22.8111" stroke="#C1C2C5" stroke-width="2" stroke-linecap="round"/>
<path d="M573 15C568.799 14 567.781 16.348 567 18C566.28 19.5237 566.956 24.9725 570.102 24.9998C572.685 25.0223 574.548 22.4505 576 20.7972" stroke="#C1C2C5" stroke-width="2" stroke-linecap="round"/>
<path d="M584 1.57161C584 4 584 17.1968 584 25" stroke="#C1C2C5" stroke-width="2" stroke-linecap="round"/>
<path d="M579 16C582.023 17.6919 584.791 16.8312 588 16.3426" stroke="#C1C2C5" stroke-width="2" stroke-linecap="round"/>
<path d="M593 15C593 18.8935 593 21.0902 593 25" stroke="#C1C2C5" stroke-width="2" stroke-linecap="round"/>
<path d="M604.003 17.0289C604.003 15.0187 600.673 14 599.053 16.5C597.433 19 597.619 23.5853 600.053 25C601.767 25.9962 604.38 23.5002 604.751 22.1598C604.975 21.3499 605.65 14.3929 603.763 15.0428" stroke="#C1C2C5" stroke-width="2" stroke-linecap="round"/>
<path d="M610.006 14.3214C610.006 12.0337 609.632 25.1984 610.5 24.5C611.722 23.5168 613.835 13.8154 615.726 14.3808C617.562 14.93 616.853 23.1614 616.919 25" stroke="#C1C2C5" stroke-width="2" stroke-linecap="round"/>
<path d="M593 11C593.055 11.4381 593.482 11.1345 593.683 11" stroke="#C1C2C5" stroke-width="2" stroke-linecap="round"/>
<path d="M621.722 28.7666C623.673 30.405 625.199 32.2023 626.494 34.4242C629.591 39.74 632.677 45.134 635.62 50.5362C642.184 62.5882 647.095 76.2703 650.871 89.4176C655.382 105.126 658.337 128.719 659.5 145" stroke="#C1C2C5" stroke-width="2" stroke-linecap="round"/>
<path d="M649 135.911C649.06 135.488 650.262 136.723 650.367 136.823C653.411 139.715 656.921 141.854 659.252 145.48" stroke="#C1C2C5" stroke-width="2" stroke-linecap="round"/>
<path d="M659.708 145.708C660.128 145.287 660.181 144.854 660.416 144.315C661.984 140.731 665.511 137.78 668.137 135" stroke="#C1C2C5" stroke-width="2" stroke-linecap="round"/>
</svg>
