<svg xmlns="http://www.w3.org/2000/svg" viewBox="0 0 1024 1024">
    <defs>
        <style>.a{fill:#e9e9e9;}</style>
    </defs>
    <title>Icon3</title>
    <path class="a" d="M887,422V227a90,90,0,0,0-90-90H227a90,90,0,0,0-90,90v52.6273a90,90,0,0,0,0,180V564.3727a90,90,0,0,0,0,180V797a90,90,0,0,0,90,90H797a90,90,0,0,0,90-90V602a90,90,0,0,0,0-180ZM444.1777,296.439a32.9413,32.9413,0,0,1-1.31,8.7568Q425.8194,307.2174,416,316.9844q-9.8306,9.7734-9.83,33.3447V427.123q0,31.6707-10.1572,52.2061a66.6323,66.6323,0,0,1-29.8164,30.65,66.6779,66.6779,0,0,1,29.8164,30.65q10.1529,20.5561,10.1572,52.206v80.835q0,22.9088,9.83,32.6719,9.8291,9.7559,26.8672,12.4619a27.199,27.199,0,0,1,1.31,8.42v8.4209q0,20.8712-11.4677,30.9863-11.4727,10.1046-31.127,10.1045-32.1152,0-52.7519-22.23-20.6427-22.229-20.6426-66.6894V612.3711q0-32.3349-11.14-49.5117-11.15-17.1783-34.7314-21.8926a51.4711,51.4711,0,0,1-3.6035-14.4834,142.0355,142.0355,0,0,1-.9834-16.5039,100.0546,100.0546,0,0,1,1.31-16.167,95.6357,95.6357,0,0,1,3.2764-14.1465q23.5912-5.3839,34.7314-22.9033,11.1343-17.5093,11.14-49.1748V335.5093q0-44.46,21.2978-66.3526,21.2871-21.8825,53.4073-21.893,19.66,0,30.4716,9.4311,10.8135,9.441,10.8125,31.6607ZM744.959,526.4834a95.4269,95.4269,0,0,1-3.2764,14.4834q-23.5912,4.72-34.7314,21.8926-11.15,17.1766-11.14,49.5117v75.4463q0,44.4594-20.97,66.6894-20.981,22.23-53.08,22.23-19.66,0-31.1269-10.1045-11.4728-10.1045-11.4678-30.9863a56.4055,56.4055,0,0,1,.6553-8.4209c.43-2.9258.87-5.7256,1.31-8.42q16.3727-2.7,26.2119-12.4619,9.8306-9.7735,9.83-32.6719v-80.835q0-31.6553,10.4844-52.206,10.4751-20.5416,29.4892-30.65-19.015-10.1044-29.4892-30.65-10.49-20.54-10.4844-52.2061V350.3291q0-23.5716-9.83-33.3447-9.829-9.7566-26.2119-11.7886c-.44-3.1362-.8808-6.0625-1.31-8.7568a50.0216,50.0216,0,0,1-.6553-8.0835q0-22.23,10.8125-31.6607,10.812-9.4255,30.4717-9.4311,32.0991,0,53.7353,21.893,21.624,21.8988,21.625,66.3526v72.0786q0,31.6707,11.14,49.1748,11.1357,17.5247,34.7314,22.9033a97.0227,97.0227,0,0,1,3.2764,14.1465A101.281,101.281,0,0,1,746.27,509.98,107.6522,107.6522,0,0,1,744.959,526.4834Z" />
</svg>